<svg width="214" height="168" viewBox="0 0 214 168" fill="none" xmlns="http://www.w3.org/2000/svg">
<path d="M58 3C58 1.34315 59.3431 0 61 0H133C134.657 0 136 1.34315 136 3C136 4.65685 134.657 6 133 6H61C59.3432 6 58 4.65685 58 3Z" fill="url(#paint0_linear_101_60)"/>
<path d="M24 21C24 19.3431 25.3431 18 27 18H73C74.6569 18 76 19.3431 76 21C76 22.6569 74.6569 24 73 24H27C25.3431 24 24 22.6569 24 21Z" fill="url(#paint1_linear_101_60)"/>
<path d="M0 75C0 73.3431 1.34315 72 3 72H28C29.6569 72 31 73.3431 31 75C31 76.6569 29.6569 78 28 78H3C1.34315 78 0 76.6569 0 75Z" fill="url(#paint2_linear_101_60)"/>
<path d="M39 111C39 109.343 40.3431 108 42 108H72C73.6569 108 75 109.343 75 111C75 112.657 73.6569 114 72 114H42C40.3431 114 39 112.657 39 111Z" fill="url(#paint3_linear_101_60)"/>
<path d="M170 129C170 127.343 171.343 126 173 126H196C197.657 126 199 127.343 199 129C199 130.657 197.657 132 196 132H173C171.343 132 170 130.657 170 129Z" fill="url(#paint4_linear_101_60)"/>
<path d="M107 147C107 145.343 108.343 144 110 144H174C175.657 144 177 145.343 177 147C177 148.657 175.657 150 174 150H110C108.343 150 107 148.657 107 147Z" fill="url(#paint5_linear_101_60)"/>
<path d="M122 165C122 163.343 123.343 162 125 162H143C144.657 162 146 163.343 146 165C146 166.657 144.657 168 143 168H125C123.343 168 122 166.657 122 165Z" fill="url(#paint6_linear_101_60)"/>
<path d="M58 129C58 127.343 59.3431 126 61 126H158C159.657 126 161 127.343 161 129C161 130.657 159.657 132 158 132H61C59.3431 132 58 130.657 58 129Z" fill="url(#paint7_linear_101_60)"/>
<path d="M18 93C18 91.3431 19.3431 90 21 90H117C118.657 90 120 91.3431 120 93C120 94.6569 118.657 96 117 96H21C19.3431 96 18 94.6569 18 93Z" fill="url(#paint8_linear_101_60)"/>
<path d="M135 93C135 91.3431 136.343 90 138 90H211C212.657 90 214 91.3431 214 93C214 94.6569 212.657 96 211 96H138C136.343 96 135 94.6569 135 93Z" fill="url(#paint9_linear_101_60)"/>
<path d="M85 111C85 109.343 86.3431 108 88 108H200C201.657 108 203 109.343 203 111C203 112.657 201.657 114 200 114H88C86.3431 114 85 112.657 85 111Z" fill="url(#paint10_linear_101_60)"/>
<path d="M132 39C132 37.3431 133.343 36 135 36H188C189.657 36 191 37.3431 191 39C191 40.6569 189.657 42 188 42H135C133.343 42 132 40.6569 132 39Z" fill="url(#paint11_linear_101_60)"/>
<path d="M109 57C109 55.3431 110.343 54 112 54H197C198.657 54 200 55.3431 200 57C200 58.6569 198.657 60 197 60H112C110.343 60 109 58.6569 109 57Z" fill="url(#paint12_linear_101_60)"/>
<path d="M4 57C4 55.3431 5.34315 54 7 54H92C93.6569 54 95 55.3431 95 57C95 58.6569 93.6569 60 92 60H7C5.34315 60 4 58.6569 4 57Z" fill="url(#paint13_linear_101_60)"/>
<path d="M41 75C41 73.3431 42.3431 72 44 72H204C205.657 72 207 73.3431 207 75C207 76.6569 205.657 78 204 78H44C42.3432 78 41 76.6569 41 75Z" fill="url(#paint14_linear_101_60)"/>
<path d="M9 39C9 37.3431 10.3431 36 12 36H119C120.657 36 122 37.3431 122 39C122 40.6569 120.657 42 119 42H12C10.3431 42 9 40.6569 9 39Z" fill="url(#paint15_linear_101_60)"/>
<path d="M86 21C86 19.3431 87.3431 18 89 18H170C171.657 18 173 19.3431 173 21C173 22.6569 171.657 24 170 24H89C87.3431 24 86 22.6569 86 21Z" fill="url(#paint16_linear_101_60)"/>
<path d="M82 21C82 25.9706 77.9706 30 73 30C68.0294 30 64 25.9706 64 21C64 16.0294 68.0294 12 73 12C77.9706 12 82 16.0294 82 21Z" fill="url(#paint17_linear_101_60)"/>
<path d="M144 39C144 43.9706 139.971 48 135 48C130.029 48 126 43.9706 126 39C126 34.0294 130.029 30 135 30C139.971 30 144 34.0294 144 39Z" fill="url(#paint18_linear_101_60)"/>
<path d="M105 57C105 61.9706 100.971 66 96 66C91.0294 66 87 61.9706 87 57C87 52.0294 91.0294 48 96 48C100.971 48 105 52.0294 105 57Z" fill="url(#paint19_linear_101_60)"/>
<path d="M53 75C53 79.9706 48.9706 84 44 84C39.0294 84 35 79.9706 35 75C35 70.0294 39.0294 66 44 66C48.9706 66 53 70.0294 53 75Z" fill="url(#paint20_linear_101_60)"/>
<path d="M97 111C97 115.971 92.9706 120 88 120C83.0294 120 79 115.971 79 111C79 106.029 83.0294 102 88 102C92.9706 102 97 106.029 97 111Z" fill="url(#paint21_linear_101_60)"/>
<path d="M166 129C166 133.971 161.971 138 157 138C152.029 138 148 133.971 148 129C148 124.029 152.029 120 157 120C161.971 120 166 124.029 166 129Z" fill="url(#paint22_linear_101_60)"/>
<defs>
<linearGradient id="paint0_linear_101_60" x1="47" y1="3.49999" x2="180" y2="160" gradientUnits="userSpaceOnUse">
<stop stop-color="#AD55E3"/>
<stop offset="0.58" stop-color="#1CA6F9"/>
<stop offset="1" stop-color="#1758D6"/>
</linearGradient>
<linearGradient id="paint1_linear_101_60" x1="47" y1="3.49999" x2="180" y2="160" gradientUnits="userSpaceOnUse">
<stop stop-color="#AD55E3"/>
<stop offset="0.58" stop-color="#1CA6F9"/>
<stop offset="1" stop-color="#1758D6"/>
</linearGradient>
<linearGradient id="paint2_linear_101_60" x1="47" y1="3.49999" x2="180" y2="160" gradientUnits="userSpaceOnUse">
<stop stop-color="#AD55E3"/>
<stop offset="0.58" stop-color="#1CA6F9"/>
<stop offset="1" stop-color="#1758D6"/>
</linearGradient>
<linearGradient id="paint3_linear_101_60" x1="47" y1="3.49999" x2="180" y2="160" gradientUnits="userSpaceOnUse">
<stop stop-color="#AD55E3"/>
<stop offset="0.58" stop-color="#1CA6F9"/>
<stop offset="1" stop-color="#1758D6"/>
</linearGradient>
<linearGradient id="paint4_linear_101_60" x1="47" y1="3.49999" x2="180" y2="160" gradientUnits="userSpaceOnUse">
<stop stop-color="#AD55E3"/>
<stop offset="0.58" stop-color="#1CA6F9"/>
<stop offset="1" stop-color="#1758D6"/>
</linearGradient>
<linearGradient id="paint5_linear_101_60" x1="47" y1="3.49999" x2="180" y2="160" gradientUnits="userSpaceOnUse">
<stop stop-color="#AD55E3"/>
<stop offset="0.58" stop-color="#1CA6F9"/>
<stop offset="1" stop-color="#1758D6"/>
</linearGradient>
<linearGradient id="paint6_linear_101_60" x1="47" y1="3.49999" x2="180" y2="160" gradientUnits="userSpaceOnUse">
<stop stop-color="#AD55E3"/>
<stop offset="0.58" stop-color="#1CA6F9"/>
<stop offset="1" stop-color="#1758D6"/>
</linearGradient>
<linearGradient id="paint7_linear_101_60" x1="47" y1="3.49999" x2="180" y2="160" gradientUnits="userSpaceOnUse">
<stop stop-color="#AD55E3"/>
<stop offset="0.58" stop-color="#1CA6F9"/>
<stop offset="1" stop-color="#1758D6"/>
</linearGradient>
<linearGradient id="paint8_linear_101_60" x1="47" y1="3.49999" x2="180" y2="160" gradientUnits="userSpaceOnUse">
<stop stop-color="#AD55E3"/>
<stop offset="0.58" stop-color="#1CA6F9"/>
<stop offset="1" stop-color="#1758D6"/>
</linearGradient>
<linearGradient id="paint9_linear_101_60" x1="47" y1="3.49999" x2="180" y2="160" gradientUnits="userSpaceOnUse">
<stop stop-color="#AD55E3"/>
<stop offset="0.58" stop-color="#1CA6F9"/>
<stop offset="1" stop-color="#1758D6"/>
</linearGradient>
<linearGradient id="paint10_linear_101_60" x1="47" y1="3.49999" x2="180" y2="160" gradientUnits="userSpaceOnUse">
<stop stop-color="#AD55E3"/>
<stop offset="0.58" stop-color="#1CA6F9"/>
<stop offset="1" stop-color="#1758D6"/>
</linearGradient>
<linearGradient id="paint11_linear_101_60" x1="47" y1="3.49999" x2="180" y2="160" gradientUnits="userSpaceOnUse">
<stop stop-color="#AD55E3"/>
<stop offset="0.58" stop-color="#1CA6F9"/>
<stop offset="1" stop-color="#1758D6"/>
</linearGradient>
<linearGradient id="paint12_linear_101_60" x1="47" y1="3.49999" x2="180" y2="160" gradientUnits="userSpaceOnUse">
<stop stop-color="#AD55E3"/>
<stop offset="0.58" stop-color="#1CA6F9"/>
<stop offset="1" stop-color="#1758D6"/>
</linearGradient>
<linearGradient id="paint13_linear_101_60" x1="47" y1="3.49999" x2="180" y2="160" gradientUnits="userSpaceOnUse">
<stop stop-color="#AD55E3"/>
<stop offset="0.58" stop-color="#1CA6F9"/>
<stop offset="1" stop-color="#1758D6"/>
</linearGradient>
<linearGradient id="paint14_linear_101_60" x1="47" y1="3.49999" x2="180" y2="160" gradientUnits="userSpaceOnUse">
<stop stop-color="#AD55E3"/>
<stop offset="0.58" stop-color="#1CA6F9"/>
<stop offset="1" stop-color="#1758D6"/>
</linearGradient>
<linearGradient id="paint15_linear_101_60" x1="47" y1="3.49999" x2="180" y2="160" gradientUnits="userSpaceOnUse">
<stop stop-color="#AD55E3"/>
<stop offset="0.58" stop-color="#1CA6F9"/>
<stop offset="1" stop-color="#1758D6"/>
</linearGradient>
<linearGradient id="paint16_linear_101_60" x1="47" y1="3.49999" x2="180" y2="160" gradientUnits="userSpaceOnUse">
<stop stop-color="#AD55E3"/>
<stop offset="0.58" stop-color="#1CA6F9"/>
<stop offset="1" stop-color="#1758D6"/>
</linearGradient>
<linearGradient id="paint17_linear_101_60" x1="47" y1="3.49999" x2="180" y2="160" gradientUnits="userSpaceOnUse">
<stop stop-color="#AD55E3"/>
<stop offset="0.58" stop-color="#1CA6F9"/>
<stop offset="1" stop-color="#1758D6"/>
</linearGradient>
<linearGradient id="paint18_linear_101_60" x1="47" y1="3.49999" x2="180" y2="160" gradientUnits="userSpaceOnUse">
<stop stop-color="#AD55E3"/>
<stop offset="0.58" stop-color="#1CA6F9"/>
<stop offset="1" stop-color="#1758D6"/>
</linearGradient>
<linearGradient id="paint19_linear_101_60" x1="47" y1="3.49999" x2="180" y2="160" gradientUnits="userSpaceOnUse">
<stop stop-color="#AD55E3"/>
<stop offset="0.58" stop-color="#1CA6F9"/>
<stop offset="1" stop-color="#1758D6"/>
</linearGradient>
<linearGradient id="paint20_linear_101_60" x1="47" y1="3.49999" x2="180" y2="160" gradientUnits="userSpaceOnUse">
<stop stop-color="#AD55E3"/>
<stop offset="0.58" stop-color="#1CA6F9"/>
<stop offset="1" stop-color="#1758D6"/>
</linearGradient>
<linearGradient id="paint21_linear_101_60" x1="47" y1="3.49999" x2="180" y2="160" gradientUnits="userSpaceOnUse">
<stop stop-color="#AD55E3"/>
<stop offset="0.58" stop-color="#1CA6F9"/>
<stop offset="1" stop-color="#1758D6"/>
</linearGradient>
<linearGradient id="paint22_linear_101_60" x1="47" y1="3.49999" x2="180" y2="160" gradientUnits="userSpaceOnUse">
<stop stop-color="#AD55E3"/>
<stop offset="0.58" stop-color="#1CA6F9"/>
<stop offset="1" stop-color="#1758D6"/>
</linearGradient>
</defs>
</svg>
