<svg width="437" height="101" viewBox="0 0 437 101" fill="none" xmlns="http://www.w3.org/2000/svg">
<path d="M380.64 26.5201L370.8 48.3601H390.72L380.64 26.5201ZM383.16 1.32007L417.96 78.0001H404.16L395.4 58.9201H366.12L357.36 78.0001H343.68L378.12 1.32007H383.16Z" fill="black"/>
<path d="M424.262 1.32007H436.262V78.0001H424.262V1.32007Z" fill="black"/>
<path d="M116.016 78.9601C111.856 78.9601 108.08 77.8081 104.688 75.5041C101.296 73.2001 98.576 70.0641 96.528 66.0961C94.48 62.1281 93.456 57.6161 93.456 52.5601C93.456 47.5041 94.48 42.9921 96.528 39.0241C98.576 35.0561 101.36 31.9521 104.88 29.7121C108.4 27.4721 112.368 26.3521 116.784 26.3521C119.344 26.3521 121.68 26.7361 123.792 27.5041C125.904 28.2081 127.76 29.2321 129.36 30.5761C130.96 31.9201 132.272 33.4561 133.296 35.1841C134.384 36.9121 135.12 38.7681 135.504 40.7521L132.912 40.0801V27.4081H144.816V78.0001H132.816V65.9041L135.6 65.4241C135.152 67.1521 134.32 68.8481 133.104 70.5121C131.952 72.1121 130.48 73.5521 128.688 74.8321C126.96 76.0481 125.008 77.0401 122.832 77.8081C120.72 78.5761 118.448 78.9601 116.016 78.9601ZM119.28 68.4961C122.032 68.4961 124.464 67.8241 126.576 66.4801C128.688 65.1361 130.32 63.2801 131.472 60.9121C132.688 58.4801 133.296 55.6961 133.296 52.5601C133.296 49.4881 132.688 46.7681 131.472 44.4001C130.32 42.0321 128.688 40.1761 126.576 38.8321C124.464 37.4881 122.032 36.8161 119.28 36.8161C116.528 36.8161 114.096 37.4881 111.984 38.8321C109.936 40.1761 108.336 42.0321 107.184 44.4001C106.032 46.7681 105.456 49.4881 105.456 52.5601C105.456 55.6961 106.032 58.4801 107.184 60.9121C108.336 63.2801 109.936 65.1361 111.984 66.4801C114.096 67.8241 116.528 68.4961 119.28 68.4961Z" fill="black"/>
<path d="M157.93 78.0001V27.4081H169.738V78.0001H157.93Z" fill="black"/>
<path d="M182.791 78.0001V27.4081H194.311L194.503 37.7761L192.295 38.9281C192.935 36.6241 194.183 34.5441 196.039 32.6881C197.895 30.7681 200.103 29.2321 202.663 28.0801C205.223 26.9281 207.847 26.3521 210.535 26.3521C214.375 26.3521 217.575 27.1201 220.135 28.6561C222.759 30.1921 224.711 32.4961 225.991 35.5681C227.335 38.6401 228.007 42.4801 228.007 47.0881V78.0001H216.199V47.9521C216.199 45.3921 215.847 43.2801 215.143 41.6161C214.439 39.8881 213.351 38.6401 211.879 37.8721C210.407 37.0401 208.615 36.6561 206.503 36.7201C204.775 36.7201 203.175 37.0081 201.703 37.5841C200.295 38.0961 199.047 38.8641 197.959 39.8881C196.935 40.8481 196.103 41.9681 195.463 43.2481C194.887 44.5281 194.599 45.9361 194.599 47.4721V78.0001H188.743C187.591 78.0001 186.503 78.0001 185.479 78.0001C184.519 78.0001 183.623 78.0001 182.791 78.0001Z" fill="black"/>
<path d="M239.467 78.0001V6.96007H251.371V78.0001H239.467Z" fill="black"/>
<path d="M274.4 100.08L285.151 75.2161L285.247 83.0881L260.288 27.4081H273.919L287.84 60.4321C288.288 61.2641 288.736 62.3841 289.184 63.7921C289.632 65.1361 290.015 66.4801 290.335 67.8241L287.935 68.5921C288.383 67.3761 288.863 66.0961 289.375 64.7521C289.887 63.3441 290.367 61.9041 290.815 60.4321L302.719 27.4081H316.448L295.327 78.0001L286.688 100.08H274.4Z" fill="black"/>
<path d="M20.88 1.32007H25.32L46.2 51.1201L66.96 1.32007H71.4L91.32 78.0001H78.72L67.2 33.6001H66.96L48.6 78.0001H43.92L25.44 33.2401H25.2L13.44 78.0001H0.839996L20.88 1.32007Z" fill="black"/>
<path d="M174.25 10.5C174.25 16.299 169.549 21 163.75 21C157.951 21 153.25 16.299 153.25 10.5C153.25 4.70101 157.951 0 163.75 0C169.549 0 174.25 4.70101 174.25 10.5Z" fill="black"/>
<circle cx="324" cy="76" r="10" fill="black"/>
<circle cx="163.75" cy="10.5" r="10.5" fill="black"/>
</svg>
